
        <svg xmlns="http://www.w3.org/2000/svg" xmlns:xlink="http://www.w3.org/1999/xlink" version="1.1" width="3187.5" height="1189.4790360753736" viewBox="0 0 3187.5 1189.4790360753736">
			
			<g transform="scale(9.375) translate(10, 10)">
				<defs id="SvgjsDefs2116"/><g id="SvgjsG2117" featureKey="symbolFeature-0" transform="matrix(0.11349449866174303,0,0,0.11349449866174303,-6.75292267037371,-3.302692335560783)" fill="#fff"><g xmlns="http://www.w3.org/2000/svg"><path d="M146.6,312.2l273.4-157.9h0c7.6,3.1,15.8,4.8,24.4,4.8c35.8,0,65-29.2,65-65c0-35.8-29.2-65-65-65   c-35.8,0-64.8,29-65,64.7v0L97,256.9c-23.1,13.4-37.5,38.3-37.5,65.1v347.2c0,26.7,14.4,51.7,37.6,65.1l318,183.6   c4.4,2.5,9.4,3.9,14.4,3.9c5,0,10-1.3,14.4-3.9c9-5.2,14.4-14.6,14.4-25v-9.3c0-15.2-8.2-29.3-21.3-36.9L146.6,679   c-8.9-5.2-14.5-14.8-14.5-25.1V337.3C132.1,327,137.7,317.3,146.6,312.2z M405.4,78.9L405.4,78.9c6.1-15.7,21.3-26.7,39.1-26.7   c2.2,0,4.3,0.2,6.4,0.5h0c2.6,0.4,5.1,1,7.4,1.9c16.4,5.7,28.1,21.3,28.1,39.6c0,20.1-14.2,37-33.1,41c-2.8,0.6-5.8,0.9-8.8,0.9   c-23.2,0-42-18.8-42-42C402.5,88.7,403.6,83.6,405.4,78.9z"/><path d="M903.6,276.8L585.4,93.1c-4.5-2.6-9.5-3.9-14.6-3.9c-5.1,0-10.1,1.4-14.6,3.9c-9.1,5.3-14.6,14.7-14.6,25.3   v12.9c0,12.6,6.8,24.3,17.7,30.6L854,332c8.6,4.9,13.9,14.1,13.9,24v318c0,9.9-5.3,19.1-13.9,24l-266.4,150   c-8.9-4.6-19-7.2-29.6-7.2c-35.8,0-65,29.2-65,65c0,35.8,29.2,65,65,65c32.5,0,59.5-23.9,64.3-55.1l281.4-162.5   c22.8-13.2,36.9-37.6,36.9-63.9V340.7C940.5,314.4,926.4,289.9,903.6,276.8z M587,936.1c-4.9,4.7-10.8,8.2-17.5,10.1   c-3.7,1.1-7.6,1.6-11.6,1.6c-0.4,0-0.9,0-1.3,0c-22.6-0.7-40.7-19.2-40.7-41.9c0-23.2,18.8-42,42-42c2.2,0,4.4,0.2,6.5,0.5   c20.1,3.1,35.5,20.5,35.5,41.5C599.9,917.8,595,928.5,587,936.1z"/><path d="M689.4,551L196.9,681.6c-8.6,2.3-16.8-13.8-12-23.6l11.3-23.3c9-18.6,22.7-31,38.9-35.3l488.9-129.6   c8.6-2.3,16.8,13.8,12,23.6l-13.2,27.4C715,536.7,703.3,547.4,689.4,551z"/><path d="M693,669.3l-304.9,80.8c-5.3,1.4-12.1-15-10-24.2l5.1-21.6c4-17.3,11.7-28.1,21.8-30.7l302.7-80.2   c5.3-1.4,12.1,15,10,24.2l-5.9,25.4C708.2,657.8,701.6,667,693,669.3z"/><path d="M614.1,358.5l-304.9,80.8c-5.3,1.4-12.1-15-10-24.2l5.1-21.6c4-17.3,11.7-28.1,21.8-30.7l302.7-80.2   c5.3-1.4,12.1,15,10,24.2l-5.9,25.4C629.2,347,622.7,356.2,614.1,358.5z"/><path d="M778,418.1L285.6,548.6c-8.6,2.3-16.8-13.8-12-23.6l11.3-23.3c9-18.6,22.7-31,38.9-35.3l488.9-129.6   c8.6-2.3,16.8,13.8,12,23.6l-13.2,27.4C803.7,403.8,792,414.4,778,418.1z"/></g></g><g id="SvgjsG2118" featureKey="nameFeature-0" transform="matrix(1.0651896349129817,0,0,1.0651896349129817,118.08265946983182,21.814228991878856)" fill="#fff"><path d="M28.28 35.56 c-1.72 2.72 -5.24 5 -10.8 5 c-9 0 -15.68 -6.12 -15.68 -14.48 c0 -9.6 8.6 -14.64 16.84 -14.64 c5.16 0 8.4 1.96 10.24 4.2 l-5.8 7.8 l-0.12 -0.04 c2.08 -5.56 -0.44 -11.12 -6.56 -11.12 c-4.88 0 -8.64 3.64 -8.64 11.12 c0 8.16 5 15.12 12.44 15.12 c2.92 0 6.08 -1.04 7.8 -3.16 z M42.32 20.36 c6.44 0 10.64 3.96 10.64 9.96 c0 5.88 -4.2 9.96 -10.64 9.96 s-10.64 -3.96 -10.64 -9.96 c0 -5.88 4.2 -9.96 10.64 -9.96 z M43.88 39.6 c2.88 0 4.2 -2.4 4.2 -6.2 c0 -5.36 -2.48 -12.36 -7.32 -12.36 c-2.88 0 -4.2 2.36 -4.2 6.24 c0 5.32 2.52 12.32 7.32 12.32 z M83.8 40 l0.24 -2.76 l0 -9.52 c0 -4.44 -1.28 -5.52 -3.08 -5.52 c-2.08 0 -3.96 1.68 -5.4 2.84 c0.16 0.72 0.24 1.6 0.24 2.6 l0 8.64 c0 2.16 0.36 2.92 1.56 3.72 l-6.88 0 l0.24 -2.76 l0 -9.52 c0 -4.44 -1.28 -5.52 -3.08 -5.52 c-1.96 0 -3.68 1.48 -5.16 2.6 l0 11.48 c0 2.16 0.36 2.92 1.56 3.72 l-6.88 0 l0.24 -2.76 l0 -15.36 c-0.56 -0.36 -1.6 -0.64 -2.44 -0.72 l0 -0.16 l7.72 -0.6 l-0.2 2.96 l0 0.52 c1.72 -1.36 4.44 -3.52 7.64 -3.52 c1.84 0 4.24 0.76 5.24 3.88 c1.56 -1.2 4.56 -3.88 8.08 -3.88 c2.4 0 5.68 1.24 5.68 7.28 l0 8.64 c0 2.16 0.36 2.92 1.56 3.72 l-6.88 0 z M104.16 20.36 c7.44 0 11.16 4.08 11.16 9.56 c0 6.4 -5 10.36 -11.72 10.36 c-1.48 0 -2.64 -0.24 -3.6 -0.52 l0 5.04 c0 2.16 0.36 2.92 2.16 3.72 l0 0.12 l-9.04 -1.32 l0 -0.12 c1.4 -0.36 1.8 -1.04 1.8 -3.04 l0 -21.32 c-0.56 -0.36 -1.6 -0.64 -2.64 -0.72 l0 -0.16 c4.24 -1.2 9.48 -1.6 11.88 -1.6 z M105.16 39.56 c3.2 0 4.96 -2.44 4.96 -7.52 c0 -5.44 -2.16 -11.04 -7.32 -11.04 c-1.32 0 -2.28 0.36 -2.8 0.52 l0 15.92 c1.56 1.24 3.24 2.12 5.16 2.12 z M138.95999999999998 36.72 c0 2.16 0.36 2.84 1.56 3.64 l0 0.12 l-7.64 -1.24 s0.04 0 0.04 -0.04 c-1.28 0.68 -2.88 1.08 -4.76 1.08 c-5.84 0 -9.64 -3.56 -9.64 -9.12 c0 -5.84 4.08 -10.8 12.56 -10.8 c2.56 0 5.32 0.48 7.88 1.48 l0 14.88 z M123.6 28.84 c0 5.8 3.04 10.16 7.08 10.16 c1.32 0 2.32 -0.48 3.12 -1.36 c0.04 -0.4 0.08 -0.84 0.08 -1.44 l0 -12.92 c-1.24 -1.36 -2.68 -2.16 -4.6 -2.16 c-3.76 0 -5.68 3.08 -5.68 7.72 z M159.23999999999998 40 l0.24 -2.76 l0 -9.52 c0 -4.48 -1.6 -5.52 -3.48 -5.52 c-2.48 0 -4.44 1.6 -5.96 2.72 l0 11.36 c0 2.16 0.36 2.92 1.56 3.72 l-6.88 0 l0.24 -2.76 l0 -15.36 c-0.56 -0.36 -1.6 -0.64 -2.44 -0.72 l0 -0.16 l7.72 -0.6 l-0.2 2.96 l0 0.6 c1.84 -1.28 5 -3.6 8.6 -3.6 c2.52 0 5.92 1.24 5.92 7.28 l0 8.64 c0 2.16 0.36 2.92 1.56 3.72 l-6.88 0 z M183.39999999999998 20.6 l6.16 0 l0 0.16 c-1.28 0.48 -2.24 1.16 -3.72 4.68 l-7.04 16.72 c-1.24 2.92 -2.44 5.84 -6.56 5.84 l-1.52 -1.76 c3.32 0 6 -1.2 7.32 -4.28 l0.08 -0.2 l-8.32 -18.44 l-1.48 -2.72 l9.4 0 l0 0.16 c-2 0.24 -3.6 1.2 -2.08 4.64 l4.8 10.96 l4.64 -10.96 c1.44 -3.44 -0.24 -4.16 -1.68 -4.64 l0 -0.16 z"/></g>
			</g>
		</svg>
	